<svg width="24" height="24" viewBox="0 0 24 24" fill="none" xmlns="http://www.w3.org/2000/svg">
<rect width="24" height="24" fill="#1E1E1E"/>
<g id="Desktop - 1" clip-path="url(#clip0_0_1)">
<rect width="1440" height="3225" transform="translate(-658 -1287)" fill="#0A0A0A"/>
<g id="About Section">
<g id="About Text">
<g id="Frame 3">
<rect x="-30" y="-12" width="224" height="48" rx="8" fill="url(#paint0_linear_0_1)"/>
<g id="Download">
<g id="Iconly/Light/Download">
<g id="Downlaod">
<path id="Stroke-1" d="M12.1222 15.4361L12.1222 3.39508" stroke="white" stroke-width="1.5" stroke-linecap="round" stroke-linejoin="round"/>
<path id="Stroke-3" d="M15.0382 12.5084L12.1222 15.4364L9.20621 12.5084" stroke="white" stroke-width="1.5" stroke-linecap="round" stroke-linejoin="round"/>
<path id="Stroke-4" d="M16.755 8.12799H17.688C19.723 8.12799 21.372 9.77699 21.372 11.813V16.697C21.372 18.727 19.727 20.372 17.697 20.372L6.55701 20.372C4.52201 20.372 2.87201 18.722 2.87201 16.687V11.802C2.87201 9.77299 4.51801 8.12799 6.54701 8.12799L7.48901 8.12799" stroke="white" stroke-width="1.5" stroke-linecap="round" stroke-linejoin="round"/>
</g>
</g>
</g>
</g>
</g>
</g>
</g>
<defs>
<linearGradient id="paint0_linear_0_1" x1="-30" y1="12" x2="194" y2="12" gradientUnits="userSpaceOnUse">
<stop stop-color="#33CFFF"/>
<stop offset="0.5" stop-color="#00AEFF"/>
<stop offset="1" stop-color="#008CDB"/>
</linearGradient>
<clipPath id="clip0_0_1">
<rect width="1440" height="3225" fill="white" transform="translate(-658 -1287)"/>
</clipPath>
</defs>
</svg>
