<?xml version="1.0" encoding="UTF-8"?>
<svg version="1.1" xmlns="http://www.w3.org/2000/svg" width="512" height="512">
<path d="M0 0 C1.7259047 0.00748477 3.45181805 0.01316708 5.17773438 0.01715088 C9.66256271 0.03223169 14.14685095 0.07135572 18.63146973 0.1159668 C24.04319095 0.16460607 29.45509544 0.18253738 34.86697388 0.20578003 C43.03668851 0.24422263 51.20522435 0.32099623 59.375 0.390625 C59.375 14.580625 59.375 28.770625 59.375 43.390625 C54.47269531 43.41640625 49.57039062 43.4421875 44.51953125 43.46875 C41.38862174 43.49395677 38.2578052 43.52031889 35.12695312 43.55078125 C30.17228004 43.5988808 25.21782254 43.64301271 20.26293945 43.66162109 C16.26206623 43.6769168 12.26176228 43.7115857 8.26114464 43.75893402 C6.7452156 43.77361622 5.22920523 43.78165833 3.71320534 43.78250885 C-10.91553399 43.79894922 -23.68572571 46.23008967 -34.77734375 56.35546875 C-44.1782294 66.03645528 -46.77895896 77.38463563 -46.76544189 90.4593811 C-46.76841302 91.36258949 -46.77138414 92.26579787 -46.7744453 93.1963762 C-46.78310485 96.21767822 -46.78463823 99.23894048 -46.78613281 102.26025391 C-46.79076296 104.42883386 -46.79578789 106.59741301 -46.80117798 108.76599121 C-46.81428583 114.65468329 -46.8207439 120.54336397 -46.82518864 126.43206835 C-46.82812224 130.11372435 -46.83222762 133.79537726 -46.83669281 137.47703171 C-46.85036409 149.00364563 -46.8600323 160.53025245 -46.8638947 172.05687392 C-46.86837332 185.34836516 -46.8859137 198.63972737 -46.9148953 211.93119109 C-46.93653625 222.2142192 -46.94660029 232.49721839 -46.94793582 242.78026903 C-46.9489822 248.91747331 -46.95485448 255.05458077 -46.97275543 261.19176102 C-46.98927757 266.96854953 -46.99137145 272.74516888 -46.98261642 278.52197266 C-46.98184825 280.63584218 -46.98615969 282.74972095 -46.99607468 284.86356735 C-47.06683353 300.89638606 -46.68808829 315.27744627 -35.43359375 327.8359375 C-25.38197693 337.61327264 -14.19676327 340.54516888 -0.5562439 340.53106689 C0.34696449 340.53403802 1.25017287 340.53700914 2.1807512 340.5400703 C5.20205322 340.54872985 8.22331548 340.55026323 11.24462891 340.55175781 C13.41320886 340.55638796 15.58178801 340.56141289 17.75036621 340.56680298 C23.63905829 340.57991083 29.52773897 340.5863689 35.41644335 340.59081364 C39.09809935 340.59374724 42.77975226 340.59785262 46.46140671 340.60231781 C57.98802063 340.61598909 69.51462745 340.6256573 81.04124892 340.6295197 C94.33274016 340.63399832 107.62410237 340.6515387 120.91556609 340.6805203 C131.1985942 340.70216125 141.48159339 340.71222529 151.76464403 340.71356082 C157.90184831 340.7146072 164.03895577 340.72047948 170.17613602 340.73838043 C175.95292453 340.75490257 181.72954388 340.75699645 187.50634766 340.74824142 C189.62021718 340.74747325 191.73409595 340.75178469 193.84794235 340.76169968 C209.88076106 340.83245853 224.26182127 340.45371329 236.8203125 329.19921875 C245.93545851 319.82836732 249.41500288 309.27040068 249.58032227 296.37548828 C249.59022186 295.70161575 249.60012146 295.02774323 249.61032104 294.33345032 C249.64168184 292.12598068 249.66659184 289.91848959 249.69140625 287.7109375 C249.71199779 286.17251047 249.73299482 284.63408882 249.75437927 283.09567261 C249.80937285 279.06144588 249.85888155 275.02717003 249.90722656 270.99285889 C249.96647812 266.14438547 250.03258019 261.29600115 250.09752655 256.44760132 C250.19524998 249.09533064 250.2843014 241.74300081 250.375 234.390625 C264.565 234.390625 278.755 234.390625 293.375 234.390625 C293.53543524 253.21502618 293.53543524 253.21502618 293.5703125 261.3359375 C293.59407991 266.84358436 293.62197218 272.35096135 293.67675781 277.85839844 C293.72072009 282.30642624 293.74424147 286.75416402 293.75450897 291.20239258 C293.76181116 292.88619543 293.77606576 294.56998525 293.79792023 296.25366211 C293.97385249 310.38997713 292.48850275 324.02681565 285.625 336.703125 C285.27993408 337.36207764 284.93486816 338.02103027 284.5793457 338.69995117 C273.05158055 360.17221294 255.0723361 374.7715017 231.97375965 382.15855503 C220.8045774 385.20643203 209.61465258 384.82006312 198.12182617 384.79467773 C195.78136368 384.80038798 193.44090398 384.80735476 191.10044861 384.81547546 C184.77385913 384.83335066 178.44740879 384.83224894 172.12080169 384.82653308 C166.15377946 384.82303947 160.18677408 384.83101756 154.21975712 384.83789373 C141.67786131 384.85158705 129.13602806 384.84620372 116.59413371 384.83470852 C105.1534886 384.82478211 93.71300536 384.83771215 82.2723852 384.86164271 C70.48811029 384.88610387 58.70391055 384.89562425 46.9196108 384.88898998 C40.31848364 384.88551295 33.71746483 384.88796952 27.11635399 384.90524101 C20.90521474 384.92078423 14.69438282 384.91667288 8.48325539 384.89793587 C6.21464723 384.8942702 3.94601592 384.89729878 1.6774292 384.90782166 C-13.9606699 384.97477444 -28.85147876 384.26740681 -42.9375 376.640625 C-43.59645264 376.29555908 -44.25540527 375.95049316 -44.93432617 375.5949707 C-66.40658794 364.06720555 -81.0058767 346.0879611 -88.39293003 322.98938465 C-91.44080703 311.8202024 -91.05443812 300.63027758 -91.02905273 289.13745117 C-91.03476298 286.79698868 -91.04172976 284.45652898 -91.04985046 282.11607361 C-91.06772566 275.78948413 -91.06662394 269.46303379 -91.06090808 263.13642669 C-91.05741447 257.16940446 -91.06539256 251.20239908 -91.07226873 245.23538212 C-91.08596205 232.69348631 -91.08057872 220.15165306 -91.06908352 207.60975871 C-91.05915711 196.1691136 -91.07208715 184.72863036 -91.09601771 173.2880102 C-91.12047887 161.50373529 -91.12999925 149.71953555 -91.12336498 137.9352358 C-91.11988795 131.33410864 -91.12234452 124.73308983 -91.13961601 118.13197899 C-91.15515923 111.92083974 -91.15104788 105.71000782 -91.13231087 99.49888039 C-91.1286452 97.23027223 -91.13167378 94.96164092 -91.14219666 92.6930542 C-91.20933481 77.01165947 -90.49441098 62.12352771 -82.8125 48.015625 C-82.46413086 47.35336914 -82.11576172 46.69111328 -81.75683594 46.00878906 C-70.79903499 25.57882169 -53.48301468 10.36208099 -31.23046875 3.31573486 C-20.6652842 0.42605216 -10.91137907 -0.14163192 0 0 Z " fill="#FFFFFF" transform="translate(154.625,63.609375)"/>
<path d="M0 0 C17.59404841 -0.11296953 35.1877862 -0.20503177 52.78209686 -0.25906086 C60.95186876 -0.2848169 69.12139891 -0.31991732 77.29101562 -0.37719727 C84.41361548 -0.42711232 91.53604023 -0.45930992 98.65881014 -0.47044247 C102.42859869 -0.47694766 106.19788639 -0.49218132 109.96751404 -0.52865028 C113.5200422 -0.56273856 117.07186605 -0.5730276 120.62454224 -0.56553841 C122.54108696 -0.56755708 124.457556 -0.59438509 126.37390137 -0.62210083 C133.5017279 -0.57969548 138.72252823 -0.06723118 144 5 C150.55041732 11.79902261 150.8396777 18.39844408 150.68115234 27.50610352 C150.67945677 28.84731469 150.68041601 30.18853142 150.68380737 31.52973938 C150.68551848 35.14529057 150.65041579 38.75963062 150.60836363 42.37490201 C150.57067943 46.16246361 150.56731744 49.95005756 150.56021118 53.73777771 C150.54161388 60.89885236 150.49244726 68.05937289 150.43211424 75.22020429 C150.36488872 83.37737393 150.33201998 91.53457101 150.30194163 99.69194901 C150.23934256 116.46167422 150.12937532 133.23063679 150 150 C135.81 150 121.62 150 107 150 C106.67 125.58 106.34 101.16 106 76 C62.44 119.56 18.88 163.12 -26 208 C-30.57501695 204.0785569 -34.93250354 200.20779837 -39.15234375 195.9453125 C-39.69734024 195.39890106 -40.24233673 194.85248962 -40.80384827 194.28952026 C-42.51746118 192.57037942 -44.22753444 190.84776796 -45.9375 189.125 C-47.10979204 187.94768362 -48.28231614 186.77059826 -49.45507812 185.59375 C-52.30606982 182.73182511 -55.15389615 179.86678543 -58 177 C-52.35821271 170.11371554 -46.04938389 163.91579866 -39.75244141 157.63891602 C-38.50997792 156.39673494 -37.26773527 155.15433295 -36.0256958 153.91172791 C-32.66888899 150.55463525 -29.30901711 147.20062569 -25.94857073 143.84717679 C-22.4313958 140.33627084 -18.91706956 136.82251576 -15.4024353 133.30906677 C-8.75352129 126.66325564 -2.10206319 120.01999684 4.55032122 113.37765974 C12.12666176 105.81251276 19.70014882 98.24451189 27.27340198 90.67627442 C42.84577058 75.11434658 58.42207939 59.55637026 74 44 C37.37 43.505 37.37 43.505 0 43 C0 28.81 0 14.62 0 0 Z " fill="#FFFFFF" transform="translate(298,64)"/>
</svg>
