<svg width="131" height="130" viewBox="0 0 131 130" fill="none" xmlns="http://www.w3.org/2000/svg">
<path d="M130.5 65C130.5 100.899 101.399 130 65.5 130C29.6015 130 0.5 100.899 0.5 65C0.5 29.1015 29.6015 0 65.5 0C101.399 0 130.5 29.1015 130.5 65ZM13.5 65C13.5 93.7188 36.7812 117 65.5 117C94.2188 117 117.5 93.7188 117.5 65C117.5 36.2812 94.2188 13 65.5 13C36.7812 13 13.5 36.2812 13.5 65Z" fill="#D9D9D9" fill-opacity="0.2"/>
<path d="M27.294 117.586C16.1889 109.518 7.9231 98.1409 3.68133 85.0861C-0.560442 72.0313 -0.560442 57.9687 3.68133 44.9139C7.92309 31.8591 16.1889 20.4822 27.294 12.4139C38.3991 4.34557 51.7733 -1.63689e-07 65.5 0V13C54.5187 13 43.8192 16.4765 34.9352 22.9311C26.0511 29.3858 19.4385 38.4873 16.0451 48.9311C12.6516 59.375 12.6516 70.625 16.0451 81.0689C19.4385 91.5127 26.0511 100.614 34.9352 107.069L27.294 117.586Z" fill="url(#paint0_linear_14_48)"/>
<path fill-rule="evenodd" clip-rule="evenodd" d="M67.3808 73.4586C69.118 74.852 71.2697 75.6275 73.4964 75.6628C75.7231 75.6981 77.8983 74.9912 79.6788 73.6536C81.4594 72.3159 82.744 70.4237 83.3302 68.2752C83.9163 66.1267 83.7706 63.8442 82.9161 61.7877C82.2016 60.0605 81.0186 58.5675 79.5006 57.4769C80.7955 56.5487 81.8504 55.3252 82.5778 53.9078C83.3053 52.4904 83.6843 50.92 83.6834 49.3268C83.6834 46.6665 82.6266 44.1151 80.7455 42.2339C78.8643 40.3528 76.3129 39.296 73.6526 39.296H57.3524C55.2288 39.2953 53.1597 39.9687 51.4432 41.2192C49.7267 42.4696 48.4514 44.2326 47.8009 46.2541C47.1503 48.2757 47.1582 50.4516 47.8233 52.4684C48.4884 54.4852 49.7765 56.2389 51.5019 57.4769C50.2076 58.4056 49.153 59.6292 48.4256 61.0465C47.6981 62.4638 47.3187 64.0339 47.3187 65.627C47.3187 67.22 47.6981 68.7902 48.4256 70.2075C49.153 71.6247 50.2076 72.8484 51.5019 73.7771C50.1055 74.7791 48.9899 76.1232 48.2623 77.6803C47.5346 79.2375 47.2193 80.9555 47.3466 82.6695C47.4738 84.3836 48.0394 86.0362 48.989 87.4688C49.9386 88.9015 51.2404 90.066 52.7695 90.8509C54.2986 91.6357 56.0038 92.0145 57.7214 91.9508C59.439 91.8872 61.1114 91.3833 62.5782 90.4874C64.0451 89.5916 65.2571 88.3338 66.0981 86.8348C66.939 85.3358 67.3807 83.6459 67.3808 81.9271V73.4586ZM57.3499 43.0575C55.6872 43.0575 54.0926 43.718 52.9169 44.8938C51.7411 46.0695 51.0806 47.6641 51.0806 49.3268C51.0806 50.9895 51.7411 52.5842 52.9169 53.7599C54.0926 54.9356 55.6872 55.5961 57.3499 55.5961H63.6192V43.0575H57.3499ZM63.6192 75.6579H57.3499C56.11 75.6579 54.8979 76.0255 53.8669 76.7144C52.8359 77.4033 52.0324 78.3824 51.5578 79.528C51.0833 80.6735 50.9592 81.9341 51.2011 83.1502C51.443 84.3663 52.0401 85.4834 52.9169 86.3602C53.7936 87.237 54.9107 87.8341 56.1268 88.076C57.343 88.3179 58.6035 88.1937 59.7491 87.7192C60.8946 87.2447 61.8738 86.4412 62.5626 85.4102C63.2515 84.3792 63.6192 83.1671 63.6192 81.9271V75.6579ZM57.3499 59.3577C55.6872 59.3577 54.0926 60.0182 52.9169 61.1939C51.7411 62.3696 51.0806 63.9643 51.0806 65.627C51.0806 67.2897 51.7411 68.8843 52.9169 70.06C54.0926 71.2358 55.6872 71.8963 57.3499 71.8963H63.6192V59.3577H57.3499ZM67.3808 65.627C67.3808 67.29 68.0414 68.885 69.2174 70.0609C70.3933 71.2369 71.9883 71.8975 73.6513 71.8975C75.3144 71.8975 76.9093 71.2369 78.0853 70.0609C79.2612 68.885 79.9219 67.29 79.9219 65.627C79.9219 63.9639 79.2612 62.369 78.0853 61.193C76.9093 60.0171 75.3144 59.3564 73.6513 59.3564C71.9883 59.3564 70.3933 60.0171 69.2174 61.193C68.0414 62.369 67.3808 63.9639 67.3808 65.627ZM73.6501 55.5961C75.3128 55.5961 76.9074 54.9356 78.0831 53.7599C79.2589 52.5842 79.9194 50.9895 79.9194 49.3268C79.9194 47.6641 79.2589 46.0695 78.0831 44.8938C76.9074 43.718 75.3128 43.0575 73.6501 43.0575H67.3808V55.5961H73.6501Z" fill="#959595"/>
<defs>
<linearGradient id="paint0_linear_14_48" x1="3.90116" y1="12.2641" x2="131.106" y2="21.9712" gradientUnits="userSpaceOnUse">
<stop stop-color="#33CFFF"/>
<stop offset="0.395" stop-color="#00AEFF"/>
</linearGradient>
</defs>
</svg>
