<svg width="131" height="130" viewBox="0 0 131 130" fill="none" xmlns="http://www.w3.org/2000/svg">
<path d="M130.5 65C130.5 100.899 101.399 130 65.5 130C29.6015 130 0.5 100.899 0.5 65C0.5 29.1015 29.6015 0 65.5 0C101.399 0 130.5 29.1015 130.5 65ZM13.5 65C13.5 93.7188 36.7812 117 65.5 117C94.2188 117 117.5 93.7188 117.5 65C117.5 36.2812 94.2188 13 65.5 13C36.7812 13 13.5 36.2812 13.5 65Z" fill="#D9D9D9" fill-opacity="0.2"/>
<path d="M128.834 50.3782C131.922 63.753 130.696 77.7621 125.333 90.3975C119.969 103.033 110.743 113.646 98.9774 120.716C87.2114 127.786 73.5092 130.949 59.8348 129.753C46.1604 128.556 33.2157 123.062 22.8561 114.056C12.4965 105.051 5.25374 92.9966 2.16593 79.6217C-0.921882 66.2469 0.303772 52.2378 5.66722 39.6024C11.0307 26.9669 20.2566 16.3538 32.0226 9.28406C43.7887 2.21433 57.4908 -0.949029 71.1653 0.247356L70.0322 13.1979C59.0927 12.2408 48.1309 14.7715 38.7181 20.4273C29.3053 26.083 21.9245 34.5736 17.6338 44.6819C13.343 54.7903 12.3625 65.9975 14.8327 76.6974C17.303 87.3973 23.0972 97.0405 31.3849 104.245C39.6726 111.449 50.0283 115.845 60.9679 116.802C71.9074 117.759 82.8691 115.229 92.282 109.573C101.695 103.917 109.076 95.4264 113.366 85.318C117.657 75.2097 118.638 64.0024 116.167 53.3025L128.834 50.3782Z" fill="url(#paint0_linear_14_29)"/>
<path d="M69.0573 75.8133L66.7693 78.9813C68.94 80.9173 71.6387 81.8853 74.8653 81.8853C77.3293 81.8267 79.2067 81.1911 80.4973 79.9787C81.8076 78.7467 82.4627 77.28 82.4627 75.5787C82.4627 73.9164 82.0031 72.5476 81.084 71.472C80.1649 70.3964 78.62 69.536 76.4493 68.8907C74.6538 68.3449 73.3827 67.8462 72.636 67.3947C71.8929 66.9253 71.5213 66.3582 71.5213 65.6933C71.5213 65.0889 71.8244 64.6 72.4307 64.2267C73.0387 63.8533 73.8502 63.6676 74.8653 63.6693C75.6102 63.6693 76.4511 63.816 77.388 64.1093C78.3267 64.3636 79.1578 64.7742 79.8813 65.3413L81.9347 62.144C80.1373 60.6969 77.7516 59.9733 74.7773 59.9733C72.6476 59.9733 70.8973 60.5209 69.5267 61.616C68.1187 62.7093 67.4147 64.0684 67.4147 65.6933C67.4342 67.4142 68.0013 68.7538 69.116 69.712C70.2502 70.672 71.8636 71.4542 73.956 72.0587C75.6982 72.6044 76.8813 73.152 77.5053 73.7013C77.7937 73.9469 78.0246 74.2529 78.1818 74.5976C78.3389 74.9422 78.4184 75.3172 78.4147 75.696C78.4293 76.0428 78.3534 76.3875 78.1944 76.6961C78.0354 77.0047 77.7989 77.2665 77.508 77.456C76.8804 77.8862 75.98 78.1013 74.8067 78.1013C72.892 78.1191 70.9756 77.3564 69.0573 75.8133ZM54.3107 77.5147C53.6675 77.1079 53.1095 76.5799 52.668 75.96L49.9107 78.2187C50.7338 79.6053 51.7507 80.5733 52.9613 81.1227C54.0956 81.6293 55.396 81.8836 56.8627 81.8853C57.6627 81.8853 58.4938 81.7582 59.356 81.504C60.2182 81.2498 61.0102 80.8196 61.732 80.2133C63.0031 79.1964 63.668 77.5342 63.7267 75.2267V60.3253H59.7667V74.464C59.7667 75.8151 59.4644 76.7636 58.86 77.3093C58.252 77.8373 57.4884 78.1013 56.5693 78.1013C55.6893 78.1013 54.9364 77.9058 54.3107 77.5147ZM41.5 49C41.5 46.8783 42.3429 44.8434 43.8431 43.3431C45.3434 41.8429 47.3783 41 49.5 41H81.5C83.6217 41 85.6566 41.8429 87.1569 43.3431C88.6571 44.8434 89.5 46.8783 89.5 49V81C89.5 83.1217 88.6571 85.1566 87.1569 86.6569C85.6566 88.1571 83.6217 89 81.5 89H49.5C47.3783 89 45.3434 88.1571 43.8431 86.6569C42.3429 85.1566 41.5 83.1217 41.5 81V49ZM49.5 46.3333C48.7928 46.3333 48.1145 46.6143 47.6144 47.1144C47.1143 47.6145 46.8333 48.2928 46.8333 49V81C46.8333 81.7072 47.1143 82.3855 47.6144 82.8856C48.1145 83.3857 48.7928 83.6667 49.5 83.6667H81.5C82.2072 83.6667 82.8855 83.3857 83.3856 82.8856C83.8857 82.3855 84.1667 81.7072 84.1667 81V49C84.1667 48.2928 83.8857 47.6145 83.3856 47.1144C82.8855 46.6143 82.2072 46.3333 81.5 46.3333H49.5Z" fill="#959595"/>
<defs>
<linearGradient id="paint0_linear_14_29" x1="3.90116" y1="12.2641" x2="131.106" y2="21.9712" gradientUnits="userSpaceOnUse">
<stop stop-color="#33CFFF"/>
<stop offset="0.395" stop-color="#00AEFF"/>
</linearGradient>
</defs>
</svg>
