<svg width="131" height="130" viewBox="0 0 131 130" fill="none" xmlns="http://www.w3.org/2000/svg">
<path d="M130.5 65C130.5 100.899 101.399 130 65.5 130C29.6015 130 0.5 100.899 0.5 65C0.5 29.1015 29.6015 0 65.5 0C101.399 0 130.5 29.1015 130.5 65ZM13.5 65C13.5 93.7188 36.7812 117 65.5 117C94.2188 117 117.5 93.7188 117.5 65C117.5 36.2812 94.2188 13 65.5 13C36.7812 13 13.5 36.2812 13.5 65Z" fill="#D9D9D9" fill-opacity="0.2"/>
<path d="M3.34019 84.0042C0.341138 74.1947 -0.29373 63.8147 1.48749 53.7129C3.26872 43.611 7.41546 34.0742 13.5887 25.882C19.7619 17.6899 27.7863 11.0751 37.0058 6.57841C46.2254 2.08174 56.3782 -0.169112 66.6343 0.00989863L66.4075 13.0079C58.2026 12.8647 50.0803 14.6654 42.7047 18.2627C35.329 21.8601 28.9095 27.1519 23.9709 33.7056C19.0324 40.2594 15.715 47.8888 14.29 55.9703C12.865 64.0518 13.3729 72.3558 15.7722 80.2033L3.34019 84.0042Z" fill="url(#paint0_linear_14_39)"/>
<path d="M65.5 37.9333C64.78 37.9333 64.0333 38.12 63.42 38.4667L43.58 49.9333C42.3 50.68 41.5 52.0667 41.5 53.56V76.44C41.5 77.9333 42.3 79.32 43.58 80.0667L48.78 83.0533C51.3133 84.28 52.1667 84.3067 53.34 84.3067C57.0733 84.3067 59.2333 82.04 59.2333 78.0933V55.5067C59.2333 55.1867 58.9667 54.92 58.6467 54.92H56.1667C55.82 54.92 55.5533 55.1867 55.5533 55.5067V78.0933C55.5533 79.8533 53.74 81.5867 50.8333 80.12L45.3667 77C45.2769 76.9366 45.2035 76.8528 45.1525 76.7554C45.1015 76.658 45.0743 76.5499 45.0733 76.44V53.56C45.0733 53.32 45.18 53.1067 45.3667 53L65.2067 41.56C65.3667 41.4533 65.6333 41.4533 65.7933 41.56L85.6333 53C85.82 53.1067 85.9267 53.32 85.9267 53.56V76.44C85.9267 76.6533 85.82 76.8667 85.6333 77L65.7933 88.44C65.6333 88.5467 65.3667 88.5467 65.18 88.44L60.1667 85.4C59.9533 85.32 59.74 85.2933 59.6067 85.3733C58.1933 86.1733 57.9267 86.3333 56.62 86.7333C56.3 86.84 55.7933 87.0267 56.8067 87.5867L63.42 91.5067C64.06 91.88 64.7533 92.0667 65.5 92.0667C66.2467 92.0667 66.94 91.88 67.58 91.5067L87.42 80.0667C88.7 79.32 89.5 77.9333 89.5 76.44V53.56C89.5 52.0667 88.7 50.68 87.42 49.9333L67.58 38.4667C66.9667 38.12 66.2467 37.9333 65.5 37.9333ZM70.8333 54.3333C65.18 54.3333 61.7933 56.7067 61.7933 60.7067C61.7933 65 65.1533 66.2533 70.5933 66.7867C77.0733 67.4267 77.58 68.3867 77.58 69.6667C77.58 71.88 75.7933 72.8133 71.6333 72.8133C66.3533 72.8133 65.2333 71.5067 64.8333 68.8933C64.8053 68.7583 64.7317 68.6369 64.6249 68.5496C64.5181 68.4622 64.3846 68.4141 64.2467 68.4133H61.6867C61.3667 68.4133 61.1267 68.6533 61.1267 69C61.1267 72.3067 62.94 76.3067 71.6333 76.3067C77.9 76.3067 81.5 73.8267 81.5 69.5067C81.5 65.2133 78.62 64.0933 72.5133 63.2667C66.3533 62.4667 65.74 62.04 65.74 60.6C65.74 59.4 66.2733 57.8 70.8333 57.8C74.8333 57.8 76.4067 58.68 77.02 61.4267C77.0733 61.6933 77.3133 61.88 77.58 61.88H80.1667C80.3 61.88 80.46 61.8267 80.5667 61.6933C80.6733 61.5867 80.7533 61.4267 80.7 61.2667C80.3267 56.52 77.18 54.3333 70.8333 54.3333Z" fill="#959595"/>
<defs>
<linearGradient id="paint0_linear_14_39" x1="3.90116" y1="12.2641" x2="131.106" y2="21.9712" gradientUnits="userSpaceOnUse">
<stop stop-color="#33CFFF"/>
<stop offset="0.395" stop-color="#00AEFF"/>
</linearGradient>
</defs>
</svg>
