<svg width="131" height="130" viewBox="0 0 131 130" fill="none" xmlns="http://www.w3.org/2000/svg">
<path d="M130.5 65C130.5 100.899 101.399 130 65.5 130C29.6015 130 0.5 100.899 0.5 65C0.5 29.1015 29.6015 0 65.5 0C101.399 0 130.5 29.1015 130.5 65ZM13.5 65C13.5 93.7188 36.7812 117 65.5 117C94.2188 117 117.5 93.7188 117.5 65C117.5 36.2812 94.2188 13 65.5 13C36.7812 13 13.5 36.2812 13.5 65Z" fill="#D9D9D9" fill-opacity="0.2"/>
<path d="M127.319 85.0861C123.614 96.4868 116.829 106.641 107.714 114.426C98.5988 122.212 87.5081 127.324 75.6682 129.2C63.8284 131.075 51.7005 129.64 40.6256 125.052C29.5506 120.465 19.9599 112.904 12.9139 103.206C5.86785 93.508 1.6409 82.0503 0.700373 70.0998C-0.240151 58.1493 2.14239 46.1715 7.58458 35.4906C13.0268 24.8097 21.3166 15.8418 31.5376 9.57839C41.7586 3.31496 53.5125 -1.42949e-07 65.5 0V13C55.91 13 46.5069 15.652 38.3301 20.6627C30.1533 25.6735 23.5214 32.8478 19.1677 41.3925C14.8139 49.9372 12.9079 59.5195 13.6603 69.0799C14.4127 78.6403 17.7943 87.8064 23.4311 95.5648C29.068 103.323 36.7405 109.372 45.6005 113.042C54.4604 116.712 64.1627 117.86 73.6346 116.36C83.1065 114.86 91.979 110.769 99.2713 104.541C106.564 98.3129 111.991 90.1895 114.955 81.0689L127.319 85.0861Z" fill="url(#paint0_linear_14_57)"/>
<path d="M65.5 38.3333C61.9981 38.3333 58.5304 39.0231 55.2951 40.3632C52.0597 41.7033 49.12 43.6676 46.6438 46.1438C41.6428 51.1448 38.8333 57.9275 38.8333 65C38.8333 76.7866 46.4866 86.7866 57.0733 90.3333C58.4066 90.5466 58.8333 89.72 58.8333 89V84.4933C51.4466 86.0933 49.8733 80.92 49.8733 80.92C48.6466 77.8266 46.9133 77 46.9133 77C44.4866 75.3466 47.1 75.4 47.1 75.4C49.7666 75.5866 51.18 78.1466 51.18 78.1466C53.5 82.2 57.42 81 58.94 80.36C59.18 78.6266 59.8733 77.4533 60.62 76.7866C54.7 76.12 48.4866 73.8266 48.4866 63.6666C48.4866 60.7066 49.5 58.3333 51.2333 56.44C50.9666 55.7733 50.0333 53 51.5 49.4C51.5 49.4 53.74 48.68 58.8333 52.12C60.94 51.5333 63.2333 51.24 65.5 51.24C67.7666 51.24 70.06 51.5333 72.1666 52.12C77.26 48.68 79.5 49.4 79.5 49.4C80.9666 53 80.0333 55.7733 79.7666 56.44C81.5 58.3333 82.5133 60.7066 82.5133 63.6666C82.5133 73.8533 76.2733 76.0933 70.3266 76.76C71.2866 77.5866 72.1666 79.2133 72.1666 81.6933V89C72.1666 89.72 72.5933 90.5733 73.9533 90.3333C84.54 86.76 92.1666 76.7866 92.1666 65C92.1666 61.4981 91.4769 58.0304 90.1368 54.7951C88.7966 51.5597 86.8324 48.62 84.3562 46.1438C81.8799 43.6676 78.9402 41.7033 75.7049 40.3632C72.4695 39.0231 69.0019 38.3333 65.5 38.3333Z" fill="#959595"/>
<defs>
<linearGradient id="paint0_linear_14_57" x1="3.90116" y1="12.2641" x2="131.106" y2="21.9712" gradientUnits="userSpaceOnUse">
<stop stop-color="#33CFFF"/>
<stop offset="0.395" stop-color="#00AEFF"/>
</linearGradient>
</defs>
</svg>
