<svg width="40" height="40" viewBox="0 0 40 40" fill="none" xmlns="http://www.w3.org/2000/svg">
<circle cx="20" cy="20" r="19.65" fill="white" fill-opacity="0.04" stroke="#575757" stroke-width="0.7"/>
<path d="M20 12C20.855 12 21.732 12.022 22.582 12.058L23.586 12.106L24.547 12.163L25.447 12.224L26.269 12.288C27.1612 12.3559 28.0008 12.7364 28.64 13.3626C29.2791 13.9888 29.6768 14.8204 29.763 15.711L29.803 16.136L29.878 17.046C29.948 17.989 30 19.017 30 20C30 20.983 29.948 22.011 29.878 22.954L29.803 23.864L29.763 24.289C29.6768 25.1798 29.2789 26.0115 28.6396 26.6377C28.0002 27.2639 27.1604 27.6443 26.268 27.712L25.448 27.775L24.548 27.837L23.586 27.894L22.582 27.942C21.7218 27.9793 20.861 27.9986 20 28C19.139 27.9986 18.2782 27.9793 17.418 27.942L16.414 27.894L15.453 27.837L14.553 27.775L13.731 27.712C12.8388 27.6441 11.9992 27.2636 11.36 26.6374C10.7209 26.0112 10.3232 25.1796 10.237 24.289L10.197 23.864L10.122 22.954C10.0458 21.9711 10.0051 20.9858 10 20C10 19.017 10.052 17.989 10.122 17.046L10.197 16.136L10.237 15.711C10.3232 14.8206 10.7207 13.9891 11.3597 13.3629C11.9986 12.7368 12.838 12.3561 13.73 12.288L14.551 12.224L15.451 12.163L16.413 12.106L17.417 12.058C18.2775 12.0207 19.1387 12.0014 20 12ZM20 14C19.175 14 18.326 14.022 17.5 14.056L16.522 14.103L15.583 14.158L14.701 14.218L13.893 14.281C13.4682 14.3107 13.0677 14.4901 12.7627 14.7873C12.4576 15.0844 12.2678 15.4801 12.227 15.904C12.11 17.113 12 18.618 12 20C12 21.382 12.11 22.887 12.227 24.096C12.312 24.968 13.004 25.646 13.893 25.719L14.701 25.781L15.583 25.841L16.522 25.897L17.5 25.944C18.326 25.978 19.175 26 20 26C20.825 26 21.674 25.978 22.5 25.944L23.478 25.897L24.417 25.842L25.299 25.782L26.107 25.719C26.5318 25.6893 26.9323 25.5099 27.2373 25.2127C27.5424 24.9156 27.7322 24.5199 27.773 24.096C27.89 22.887 28 21.382 28 20C28 18.618 27.89 17.113 27.773 15.904C27.7322 15.4801 27.5424 15.0844 27.2373 14.7873C26.9323 14.4901 26.5318 14.3107 26.107 14.281L25.299 14.219L24.417 14.159L23.478 14.103L22.5 14.056C21.6671 14.0203 20.8336 14.0016 20 14ZM18 17.575C17.9999 17.4773 18.0237 17.381 18.0694 17.2946C18.115 17.2081 18.181 17.1341 18.2618 17.079C18.3425 17.0239 18.4354 16.9894 18.5326 16.9784C18.6297 16.9674 18.728 16.9803 18.819 17.016L18.9 17.056L23.1 19.48C23.1836 19.5283 23.2544 19.596 23.3063 19.6774C23.3581 19.7589 23.3896 19.8517 23.3979 19.9478C23.4062 20.044 23.3912 20.1408 23.3542 20.23C23.3171 20.3192 23.2591 20.3981 23.185 20.46L23.1 20.52L18.9 22.945C18.8154 22.994 18.72 23.0216 18.6223 23.0253C18.5246 23.0291 18.4274 23.0089 18.3393 22.9665C18.2511 22.9241 18.1747 22.8608 18.1166 22.7821C18.0585 22.7034 18.0205 22.6117 18.006 22.515L18 22.425V17.575Z" fill="#BABABA"/>
</svg>
